<svg id="Ebene_1" xmlns="http://www.w3.org/2000/svg" viewBox="0 0 313.3 200"><style>.st0{opacity:.2;fill:#ddd}.st1{fill:#fff}</style><path class="st0" d="M244.9 85.7h-4.6c-1-5.9-2.4-11.6-4.5-17l3.9-2.2c3.4-2 4.5-6.3 2.6-9.7L236 45.9c-2-3.4-6.3-4.5-9.7-2.6l-3.9 2.3c-3.7-4.6-7.9-8.7-12.4-12.4l2.2-3.9c2-3.4.8-7.7-2.6-9.7l-10.9-6.3c-3.4-2-7.7-.8-9.7 2.6l-2.3 3.9c-5.4-2.1-11.1-3.6-17-4.5v-4.6c0-3.9-3.2-7.1-7.1-7.1h-12.3c-3.9 0-7.1 3.2-7.1 7.1v4.6c-5.9.9-11.5 2.5-16.9 4.6l-2.3-4c-1.9-3.4-6.3-4.5-9.7-2.6l-10.9 6.3c-3.4 1.9-4.5 6.3-2.6 9.7l2.3 3.9c-4.6 3.7-8.7 7.9-12.4 12.5l-4-2.3c-3.4-1.9-7.7-.8-9.7 2.6l-6.3 10.8c-1.9 3.4-.8 7.7 2.6 9.7l3.9 2.3c-2.1 5.4-3.7 11.1-4.6 17h-4.5c-3.9 0-7.1 3.2-7.1 7.1v12.6c0 3.9 3.2 7.1 7.1 7.1h4.6c.9 5.9 2.4 11.6 4.5 17l-3.9 2.2c-3.4 1.9-4.5 6.3-2.6 9.7l6.3 10.9c2 3.4 6.3 4.5 9.7 2.6l3.9-2.3c3.7 4.6 7.9 8.7 12.4 12.4l-2.3 3.9c-2 3.4-.8 7.7 2.6 9.7l10.9 6.3c3.4 1.9 7.7.8 9.7-2.6l2.3-4c5.4 2.1 11.1 3.7 16.9 4.6v4.6c0 3.9 3.2 7.1 7.1 7.1h12.6c3.9 0 7.1-3.2 7.1-7.1V183c5.9-.9 11.6-2.4 17-4.5l2.3 3.9c1.9 3.4 6.3 4.5 9.7 2.6l10.9-6.3c3.4-2 4.5-6.3 2.6-9.7l-2.3-3.9c4.6-3.7 8.7-7.9 12.4-12.4l3.9 2.3c3.4 2 7.7.8 9.7-2.6l6.3-10.9c1.9-3.4.8-7.7-2.6-9.7l-4-2.3c2.1-5.4 3.7-11 4.6-16.9h4.6c3.9 0 7.1-3.2 7.1-7.1V92.9c-.1-4-3.3-7.2-7.2-7.2zm-88.3 77.1c-35.2 0-63.7-28.5-63.7-63.7s28.5-63.7 63.7-63.7 63.7 28.5 63.7 63.7-28.5 63.7-63.7 63.7z"/><g id="Text_x5F_CC"><path class="st1" d="M74.9 135.4c-4.5 8.8-11.2 13.2-20.1 13.2-7 0-12.5-2.4-16.6-7.1-4.1-4.7-6.1-11-6.1-18.8 0-7.9 2-14.1 5.9-18.6 3.9-4.5 9.4-6.8 16.4-6.8 4.5 0 8.4 1 11.6 2.9 3.3 2 5.6 4.8 7.1 8.5l8.2-2.7-.1-80h-8.1v69.4l-1.8-1.2c-4.5-2.6-10.2-4-17-4-1.1 0-2.2.1-3.2.1.4-.2.8-.4 1.2-.7 4.7-2.9 8.4-7 11-12.5l-7-3.5c-4.5 8.8-11.2 13.2-20.1 13.2-7 0-12.5-2.4-16.6-7.1-4.1-4.7-6.1-11-6.1-18.8 0-7.9 2-14.1 5.9-18.6 3.9-4.5 9.4-6.8 16.4-6.8 4.5 0 8.4 1 11.6 2.9 3.3 2 5.6 4.8 7.1 8.5l8.2-2.7c-2.1-5.2-5.5-9.1-10-11.8-4.5-2.6-10.2-4-17-4-9.7 0-17.3 2.9-22.8 8.6-5.4 5.9-8.1 13.8-8.1 24 0 6.8 1.2 12.6 3.7 17.6 2.5 5 6 8.8 10.7 11.4 4.7 2.7 10.2 4 16.6 4 .8 0 1.5 0 2.3-.1-2.4 1.3-4.6 3-6.6 5-5.5 5.8-8.2 13.7-8.2 23.9 0 6.8 1.2 12.6 3.7 17.6 2.5 5 6 8.8 10.7 11.4 4.7 2.7 10.2 4 16.6 4 6.3 0 11.8-1.4 16.5-4.3 4.7-2.9 8.4-7 11-12.5l-6.9-3.6z"/><path d="M54.4 156.4c-6.5 0-12.2-1.4-17-4.1-4.8-2.7-8.5-6.7-11-11.7-2.5-5-3.7-11-3.7-17.9 0-10.3 2.8-18.5 8.4-24.3 1.3-1.4 2.8-2.7 4.5-3.8-6.4 0-12-1.4-16.7-4.1-4.8-2.7-8.5-6.7-11-11.7-2.5-5-3.8-11-3.8-17.9 0-10.3 2.8-18.5 8.4-24.3 5.6-5.9 13.4-8.8 23.3-8.8 6.9 0 12.7 1.4 17.3 4.1 4.7 2.7 8.1 6.8 10.3 12.1l.3.7-9.5 3.1-.2-.6c-1.4-3.5-3.7-6.3-6.8-8.2-3.1-1.9-6.9-2.8-11.3-2.8-6.8 0-12.2 2.2-15.9 6.6-3.8 4.4-5.7 10.5-5.7 18.2 0 7.6 2 13.8 6 18.4 3.9 4.6 9.3 6.9 16 6.9 8.6 0 15.2-4.3 19.5-12.9l.3-.6 8.2 4.1-.3.6c-2.5 5.2-5.9 9.2-10.2 12.1h.5c6.9 0 12.7 1.4 17.3 4.1.3.2.5.3.8.5V25.4h9.5l.1 81.1-9.2 3.1-.2-.6c-1.4-3.5-3.7-6.3-6.8-8.2-3.1-1.9-6.9-2.8-11.3-2.8-6.8 0-12.2 2.2-15.9 6.6-3.8 4.4-5.7 10.5-5.7 18.2 0 7.6 2 13.8 6 18.4 3.9 4.6 9.3 6.9 16 6.9 8.7 0 15.1-4.2 19.5-12.9l.3-.6 8.2 4.1-.3.6c-2.7 5.6-6.5 9.9-11.3 12.8-4.9 2.8-10.6 4.3-16.9 4.3zM38.1 93.2l.4 1.3c-2.4 1.3-4.6 2.9-6.4 4.8-5.3 5.6-8 13.5-8 23.4 0 6.6 1.2 12.5 3.6 17.3 2.4 4.8 5.9 8.6 10.4 11.1 4.6 2.6 10.1 3.9 16.3 3.9 6.1 0 11.5-1.4 16.2-4.2 4.4-2.7 8-6.6 10.5-11.6l-5.9-2.9c-4.6 8.6-11.4 13-20.4 13-7.1 0-12.9-2.5-17.1-7.3-4.2-4.8-6.3-11.3-6.3-19.3s2-14.4 6-19.1c4-4.7 9.7-7 17-7 4.6 0 8.6 1 12 3 3.2 1.9 5.6 4.7 7.1 8.2l7.1-2.4-.1-78.8h-6.8v70l-1-.6c-.6-.5-1.2-.8-1.8-1.2-4.4-2.6-10-3.9-16.6-3.9-.9 0-1.9 0-3.2.1l-.4-1.3.3-.2c.3-.2.6-.3.9-.5 4.4-2.7 8-6.6 10.5-11.6l-5.9-2.9c-4.6 8.6-11.4 13-20.4 13-7.1 0-12.9-2.5-17.1-7.3-4-4.8-6.1-11.3-6.1-19.2 0-8 2-14.4 6-19.1 4-4.7 9.7-7 17-7 4.6 0 8.6 1 12 3 3.2 1.9 5.6 4.7 7.1 8.2l6.9-2.3c-2.1-4.7-5.3-8.3-9.5-10.8-4.4-2.6-10-3.9-16.6-3.9-9.5 0-17 2.8-22.3 8.4-5.3 5.6-8 13.5-8 23.4 0 6.6 1.2 12.5 3.6 17.3 2.4 4.8 5.9 8.6 10.4 11.1 4.6 2.6 10 3.9 16.3 3.9.8.1 1.6.1 2.3 0z"/></g><g id="Text_x5F_D"><path class="st1" d="M227.4 85.2c-1.5 3.1-3.5 5.4-6 6.7-2.5 1.4-5.6 2-9.2 2-6.2 0-10.7-2.1-13.6-6.2-2.9-4.2-4.4-10.4-4.4-18.9 0-17 6-25.6 18-25.6 3.7 0 6.8.7 9.3 2 2.5 1.4 4.4 3.5 6 6.5h.1l-.1-5.5V26.1h8.1v57c0 5.1.1 8.4.3 10.1h-7.8c-.1-.5-.2-1.6-.3-3.3-.1-1.7-.2-3.2-.2-4.5l-.2-.2zm-24.6-16.6c0 6.8.9 11.7 2.7 14.7 1.8 2.9 4.7 4.4 8.8 4.4 4.6 0 7.9-1.6 10-4.8 2.1-3.2 3.1-8.1 3.1-14.9 0-6.5-1-11.2-3.1-14.2s-5.4-4.5-9.9-4.5c-4.1 0-7.1 1.5-8.9 4.5-1.8 3.1-2.7 8-2.7 14.8z"/><path d="M212.2 94.7c-6.4 0-11.1-2.2-14.2-6.5-3-4.2-4.5-10.7-4.5-19.3 0-17.4 6.3-26.2 18.7-26.2 3.8 0 7 .7 9.6 2.1 2 1.1 3.6 2.6 5 4.7V25.4h9.5V83c0 5.1.1 8.4.3 10l.1.8h-9.1l-.1-.5c-.1-.5-.2-1.6-.3-3.4 0-.8-.1-1.6-.1-2.3-1.4 2.3-3.2 4-5.2 5.1-2.7 1.2-5.9 2-9.7 2zm0-50.7c-5.7 0-10.1 2.1-12.9 6.1-2.9 4.1-4.4 10.4-4.4 18.8 0 8.3 1.4 14.5 4.2 18.5 2.8 4 7.1 5.9 13.1 5.9 3.5 0 6.5-.7 8.9-1.9 2.3-1.3 4.3-3.4 5.7-6.4l.2-.4h1.3v.7c0 1.3.1 2.8.2 4.5.1 1.2.1 2.1.2 2.7h6.4c-.1-1.8-.2-4.9-.2-9.4V26.7h-6.8v19.6l.1 6.1H227l-.2-.4c-1.4-2.8-3.4-4.9-5.7-6.2-2.3-1.2-5.3-1.8-8.9-1.8zm2.1 44.4c-4.3 0-7.5-1.6-9.4-4.7-1.9-3.1-2.8-8-2.8-15s.9-11.9 2.8-15.1c1.9-3.2 5.1-4.9 9.5-4.9 4.8 0 8.3 1.6 10.5 4.8 2.2 3.1 3.2 8 3.2 14.6 0 6.8-1.1 11.9-3.2 15.2-2.2 3.4-5.8 5.1-10.6 5.1zm.1-38.4c-3.9 0-6.6 1.4-8.3 4.2-1.7 2.9-2.6 7.7-2.6 14.4s.9 11.5 2.6 14.3c1.7 2.8 4.4 4.1 8.2 4.1 4.4 0 7.5-1.5 9.5-4.5 2-3.1 3-7.9 3-14.5 0-6.3-1-11-3-13.8-2-2.8-5.1-4.2-9.4-4.2z"/></g><g id="Text_x5F_O1"><path class="st1" d="M134.8 130.3c0 8.6-1.9 14.9-5.6 19.1-3.8 4.2-9.2 6.3-16.4 6.3-7.1 0-12.5-2.2-16.2-6.5-3.6-4.3-5.5-10.6-5.5-18.9 0-16.9 7.3-25.3 21.9-25.3 7.5 0 13 2.1 16.5 6.2 3.6 4 5.3 10.4 5.3 19.1zm-8.5 0c0-6.7-1-11.6-3-14.7-2-3.1-5.4-4.6-10.1-4.6-4.8 0-8.2 1.6-10.3 4.7-2.1 3.1-3.2 8-3.2 14.6 0 6.5 1 11.3 3.1 14.5 2.1 3.2 5.4 4.9 9.9 4.9 4.9 0 8.4-1.6 10.5-4.7 2.1-3.2 3.1-8.1 3.1-14.7z"/><path d="M112.8 156.3c-7.3 0-12.9-2.3-16.7-6.8-3.7-4.5-5.6-10.9-5.6-19.3 0-17.2 7.6-26 22.6-26 7.6 0 13.3 2.2 17 6.4 3.6 4.2 5.4 10.8 5.4 19.6 0 8.7-2 15.3-5.8 19.6-3.9 4.3-9.6 6.5-16.9 6.5zm.3-50.7c-7.1 0-12.4 2.1-15.9 6.1-3.5 4.1-5.3 10.3-5.3 18.5 0 8 1.8 14.2 5.3 18.4 3.5 4.2 8.8 6.3 15.6 6.3 6.9 0 12.3-2 15.9-6.1 3.6-4 5.5-10.3 5.5-18.7 0-8.4-1.7-14.7-5.1-18.7-3.4-3.8-8.8-5.8-16-5.8zm-.4 44.7c-4.7 0-8.2-1.7-10.4-5.2-2.2-3.3-3.2-8.3-3.2-14.9 0-6.7 1.1-11.8 3.3-15 2.2-3.3 5.9-5 10.9-5s8.5 1.6 10.7 4.9c2.1 3.2 3.1 8.2 3.1 15.1 0 6.8-1.1 11.8-3.3 15.1-2.3 3.3-6 5-11.1 5zm.5-38.6c-4.6 0-7.8 1.4-9.8 4.4-2 3-3.1 7.8-3.1 14.2 0 6.3 1 11 3 14.2 2 3.1 5 4.5 9.3 4.5 4.7 0 7.9-1.4 9.9-4.4 2-3 3-7.8 3-14.3 0-6.6-1-11.4-2.9-14.3-1.7-2.9-4.9-4.3-9.4-4.3z"/></g><g id="Text_x5F_UL"><path class="st1" d="M183.9 82.6V44.2h-8.1v28.3c0 4.8-1.1 8.5-3.4 11.2-2.3 2.7-5.3 4-9.3 4-2.7 0-4.7-.4-6.1-1.2-1.4-.8-2.4-2.1-3-3.8-.6-1.8-.9-4.3-.9-7.5v-31h-8.2v32.6c0 .7 0 1.4.1 2.1v75.9h8.1v-62c2 .7 4.5 1.1 7.3 1.1 3.6 0 6.7-.7 9.1-2.1 2.5-1.4 4.6-3.8 6.5-7.2h.1c.1 2.4.1 4 .2 4.9 0 .9.1 1.6.1 2.3 0 .7.1 1.1.1 1.2h7.7c-.2-1.2-.3-4.7-.3-10.4z"/><path d="M153.8 155.4h-9.5V78.9c0-.6-.1-1.3-.1-2.1V43.5h9.5v31.7c0 3.1.3 5.6.9 7.3.6 1.6 1.5 2.8 2.7 3.5 1.3.7 3.2 1.1 5.8 1.1 3.7 0 6.6-1.3 8.7-3.8 2.1-2.6 3.2-6.2 3.2-10.7v-29h9.5v39.1c0 5.6.1 9.1.3 10.3l.1.8h-9l-.1-.5c0-.2-.1-.7-.1-1.3 0-.4 0-.7-.1-1.2 0-.4 0-.7-.1-1.1 0-.5-.1-1.4-.1-2.8-1.7 2.6-3.6 4.5-5.7 5.6-2.5 1.5-5.7 2.2-9.5 2.2-2.5 0-4.7-.3-6.6-.9l.2 61.6zm-8.2-1.3h6.8V91.9l.9.3c2 .7 4.4 1.1 7.1 1.1 3.5 0 6.5-.7 8.8-2 2.3-1.3 4.4-3.6 6.2-6.9l.2-.3h1.2v.7c.1 2.7.1 4.1.2 4.8 0 .4 0 .8.1 1.1 0 .4 0 .8.1 1.2v.6h6.3c-.1-1.7-.2-4.9-.2-9.8V44.9h-6.8v27.6c0 4.9-1.2 8.8-3.5 11.6-2.4 2.8-5.7 4.3-9.8 4.3-2.8 0-4.9-.4-6.4-1.3s-2.6-2.3-3.3-4.2c-.7-1.8-1-4.4-1-7.7V44.9h-6.8v31.9c0 .8 0 1.5.1 2l-.2 75.3z"/></g><g id="Text_x5F_O2"><path class="st1" d="M206.8 130.3c0 8.6-1.9 14.9-5.6 19.1-3.8 4.2-9.2 6.3-16.4 6.3-7.1 0-12.5-2.2-16.2-6.5-3.6-4.3-5.5-10.6-5.5-18.9 0-16.9 7.3-25.3 21.9-25.3 7.5 0 13 2.1 16.5 6.2 3.6 4 5.3 10.4 5.3 19.1zm-8.5 0c0-6.7-1-11.6-3-14.7-2-3.1-5.4-4.6-10.1-4.6-4.8 0-8.2 1.6-10.3 4.7-2.1 3.1-3.2 8-3.2 14.6 0 6.5 1 11.3 3.1 14.5 2.1 3.2 5.4 4.9 9.9 4.9 4.9 0 8.4-1.6 10.5-4.7 2-3.2 3.1-8.1 3.1-14.7z"/><path d="M184.8 156.3c-7.3 0-12.9-2.3-16.7-6.8-3.7-4.5-5.6-10.9-5.6-19.3 0-17.2 7.6-26 22.6-26 7.6 0 13.3 2.2 17 6.4 3.6 4.2 5.5 10.8 5.5 19.6 0 8.7-2 15.3-5.8 19.6-4 4.3-9.7 6.5-17 6.5zm.3-50.7c-7.1 0-12.4 2.1-15.9 6.1-3.5 4.1-5.3 10.3-5.3 18.5 0 8 1.8 14.2 5.3 18.4 3.5 4.2 8.8 6.3 15.7 6.3 6.9 0 12.3-2 15.9-6.1 3.6-4 5.5-10.3 5.5-18.7 0-8.4-1.7-14.7-5.1-18.7-3.5-3.8-8.9-5.8-16.1-5.8zm-.4 44.7c-4.7 0-8.2-1.7-10.4-5.2-2.2-3.3-3.2-8.3-3.2-14.9 0-6.7 1.1-11.8 3.3-15 2.3-3.3 5.9-5 10.9-5 4.9 0 8.5 1.6 10.7 4.9 2.1 3.2 3.1 8.1 3.1 15.1 0 6.8-1.1 11.8-3.3 15.1-2.3 3.3-6 5-11.1 5zm.5-38.6c-4.6 0-7.8 1.4-9.8 4.4-2 3-3.1 7.8-3.1 14.2 0 6.3 1 11 3 14.2 2 3.1 5 4.5 9.3 4.5 4.7 0 7.9-1.4 9.9-4.4 2-3 3-7.8 3-14.3 0-6.6-1-11.4-2.9-14.3-1.7-2.9-4.9-4.3-9.4-4.3z"/></g><g id="Text_x5F_N"><path class="st1" d="M248 154.7v-31c0-3.2-.3-5.7-.9-7.5-.6-1.8-1.6-3-3-3.8-1.4-.8-3.4-1.2-6.1-1.2-3.9 0-7 1.4-9.3 4-2.3 2.7-3.4 6.4-3.4 11.2v28.3h-8.1v-38.4c0-5.7-.1-9.2-.3-10.4h7.7c0 .1.1.5.1 1.2s.1 1.4.1 2.3c.1.9.1 2.5.2 4.9h.1c1.9-3.4 4-5.8 6.5-7.2 2.5-1.4 5.5-2.1 9.1-2.1 5.4 0 9.3 1.3 11.8 4s3.7 7.1 3.7 13.2v32.6H248z"/><path d="M256.8 155.4h-9.5v-31.6c0-3.1-.3-5.6-.9-7.3-.6-1.6-1.5-2.8-2.7-3.5-1.3-.7-3.2-1.1-5.8-1.1-3.7 0-6.6 1.3-8.7 3.8-2.1 2.5-3.2 6.1-3.2 10.7v29h-9.5v-39.1c0-5.6-.1-9.1-.3-10.3l-.1-.8h9l.1.5c.1.2.1.7.1 1.3v.8c0 .5 0 .9.1 1.5 0 .6.1 1.5.1 2.8 1.7-2.6 3.6-4.4 5.7-5.6 2.6-1.5 5.8-2.2 9.5-2.2 5.5 0 9.6 1.4 12.3 4.2 2.6 2.8 3.9 7.4 3.9 13.7l-.1 33.2zm-8.1-1.3h6.8v-31.9c0-5.9-1.2-10.2-3.6-12.8-2.3-2.5-6.1-3.8-11.3-3.8-3.5 0-6.5.7-8.8 2-2.3 1.3-4.4 3.7-6.2 6.9l-.2.3h-1.2v-1.2c-.1-2-.1-3.5-.1-4.3 0-.5 0-1-.1-1.5v-.8-.6h-6.3c.1 1.7.2 4.9.2 9.8V154h6.8v-27.6c0-4.9 1.2-8.8 3.6-11.6 2.4-2.8 5.7-4.3 9.8-4.3 2.8 0 4.9.4 6.4 1.3s2.6 2.3 3.3 4.2c.7 1.8 1 4.4 1 7.7l-.1 30.4z"/></g><g id="Text_x5F_Y"><path class="st1" d="M270.8 173.9c-2.2 0-4.1-.2-5.6-.5v-6.1c1.1.2 2.4.3 3.8.3 5.1 0 9.1-3.7 12-11.2l.8-1.9-19.4-48.6h8.7l10.3 27c.1.4.3.9.5 1.5s.9 2.6 2 5.9c1.1 3.3 1.8 5.2 1.9 5.6l3.2-8.9 10.7-31.1h8.6l-18.8 48.9c-2 5.2-3.9 9.1-5.6 11.6-1.7 2.5-3.7 4.4-5.8 5.7-2.2 1.2-4.6 1.8-7.3 1.8z"/><path d="M270.8 174.6c-2.2 0-4.2-.2-5.8-.5l-.5-.1v-7.4l.8.1c1.1.2 2.3.3 3.7.3 4.8 0 8.5-3.5 11.4-10.7l.7-1.7-19.6-49.3h10.1l10.5 27.5c.1.3.3.8.4 1.2l.1.3c.2.6.9 2.6 2 5.9.4 1.2.9 2.6 1.3 3.7l2.5-7 10.9-31.6h10L290.1 155c-2 5.2-3.9 9.2-5.7 11.8-1.8 2.6-3.8 4.6-6 5.9-2.3 1.3-4.8 1.9-7.6 1.9zm-4.9-1.7c1.4.3 3 .4 4.9.4 2.5 0 4.8-.6 6.9-1.8 2-1.2 3.9-3 5.6-5.5 1.7-2.5 3.6-6.4 5.6-11.5l18.4-47.9h-7.1l-10.6 30.7-3.9 11-.5-2.2c0-.2-.3-1.1-1.8-5.5-1.1-3.2-1.8-5.3-2-5.9l-.1-.3c-.2-.5-.3-.9-.4-1.2l-10.1-26.6h-7.2l19.1 48-.9 2.2c-3 7.7-7.3 11.6-12.6 11.6-1.1 0-2.2-.1-3.1-.2l-.2 4.7z"/></g><g id="Text_x5F_Gear"><path class="st1" d="M140.3 65h-1.4c-.3-1.8-.7-3.6-1.4-5.2l1.2-.7c1-.6 1.4-1.9.8-3l-1.9-3.4c-.6-1-1.9-1.4-3-.8l-1.2.7c-1.1-1.4-2.4-2.7-3.8-3.8l.7-1.2c.6-1 .2-2.4-.8-3l-3.4-1.9c-1-.6-2.4-.2-3 .8l-.7 1.2c-1.7-.6-3.4-1.1-5.2-1.4v-1.4c0-1.2-1-2.2-2.2-2.2h-3.9c-1.2 0-2.2 1-2.2 2.2v1.4c-1.8.3-3.6.8-5.2 1.4l-.7-1.2c-.6-1-1.9-1.4-3-.8l-3.4 1.9c-1 .6-1.4 1.9-.8 3l.7 1.2c-1.4 1.1-2.7 2.4-3.8 3.8l-1.2-.7c-1-.6-2.4-.2-3 .8l-2 3.3c-.6 1-.2 2.4.8 3l1.2.7c-.6 1.7-1.1 3.4-1.4 5.2h-1.4c-1.2 0-2.2 1-2.2 2.2V71c0 1.2 1 2.2 2.2 2.2h1.4c.3 1.8.7 3.6 1.4 5.3l-1.2.7c-1 .6-1.4 1.9-.8 3l1.9 3.4c.6 1 1.9 1.4 3 .8l1.2-.7c1.1 1.4 2.4 2.7 3.8 3.8l-.7 1.2c-.6 1-.2 2.4.8 3l3.4 1.9c1 .6 2.4.2 3-.8l.7-1.2c1.7.6 3.4 1.1 5.2 1.4v1.4c0 1.2 1 2.2 2.2 2.2h3.9c1.2 0 2.2-1 2.2-2.2V95c1.8-.3 3.6-.7 5.2-1.4l.7 1.2c.6 1 1.9 1.4 3 .8l3.4-1.9c1-.6 1.4-1.9.8-3l-.7-1.2c1.4-1.1 2.7-2.4 3.8-3.8l1.2.7c1 .6 2.4.2 3-.8l1.9-3.4c.6-1 .2-2.4-.8-3l-1.2-.7c.6-1.7 1.1-3.4 1.4-5.2h1.4c1.2 0 2.2-1 2.2-2.2v-3.9c.1-1.2-.9-2.2-2.1-2.2zM113 88.8c-10.9 0-19.7-8.8-19.7-19.7 0-10.9 8.8-19.7 19.7-19.7 10.9 0 19.7 8.8 19.7 19.7 0 10.9-8.8 19.7-19.7 19.7z"/><path d="M114.9 99.2H111c-1.6 0-2.9-1.3-2.9-2.9v-.8c-1.4-.3-2.8-.6-4.3-1.2l-.4.7c-.5.9-1.5 1.4-2.5 1.4-.5 0-1-.1-1.4-.4l-3.4-1.9c-.7-.4-1.1-1-1.3-1.7-.2-.7-.1-1.5.3-2.2l.4-.7c-1.1-.9-2.2-2-3.1-3.1l-.7.4c-.4.2-.9.4-1.4.4-1 0-2-.5-2.5-1.4l-1.9-3.4c-.8-1.4-.3-3.1 1.1-3.9l.7-.4c-.5-1.3-.9-2.8-1.1-4.3h-.8c-1.6 0-2.9-1.3-2.9-2.9V67c0-1.6 1.3-2.9 2.9-2.9h.8c.3-1.4.6-2.8 1.2-4.3l-.8-.2c-1.4-.8-1.8-2.5-1-3.9l1.9-3.4c.5-.9 1.5-1.4 2.5-1.4.5 0 1 .1 1.4.4l.7.4c1-1.2 2-2.2 3.1-3.1l-.4-.7c-.4-.7-.5-1.4-.3-2.2.2-.7.7-1.4 1.3-1.7l3.4-1.9c.4-.3.9-.4 1.4-.4 1 0 2 .5 2.5 1.4l.4.7c1.4-.5 2.8-.9 4.3-1.2v-.8c0-1.6 1.3-2.9 2.9-2.9h3.9c1.6 0 2.9 1.3 2.9 2.9v.8c1.5.3 2.9.6 4.3 1.1l.4-.7c.5-.9 1.5-1.4 2.5-1.4.5 0 1 .1 1.4.4l3.4 1.9c.7.4 1.1 1 1.3 1.7.2.7.1 1.5-.3 2.2l-.4.7c1.1.9 2.2 2 3.1 3.1l.7-.4c.4-.2.9-.4 1.4-.4 1 0 2 .5 2.5 1.4l1.9 3.4c.8 1.4.3 3.1-1 3.9l-.7.4c.5 1.3.9 2.8 1.1 4.3h.8c.8 0 1.5.3 2 .8s.8 1.3.8 2v3.9c0 1.6-1.3 2.9-2.9 2.9h-.8c-.3 1.4-.6 2.8-1.2 4.3l.7.4c1.4.8 1.8 2.5 1 3.9l-1.9 3.4c-.5.9-1.5 1.4-2.5 1.4-.5 0-1-.1-1.4-.4l-.7-.4c-.9 1.1-2 2.2-3.1 3.1l.4.7c.4.7.5 1.4.3 2.2-.2.7-.7 1.4-1.3 1.7l-3.4 1.9c-.4.2-.9.4-1.4.4-1 0-2-.5-2.5-1.4l-.4-.7c-1.3.5-2.8.9-4.3 1.1v.8c.1 1.8-1.2 3-2.8 3zm-11.5-6.5l.5.2c1.8.7 3.4 1.1 5.1 1.4l.6.1v2c0 .8.7 1.5 1.5 1.5h3.9c.8 0 1.5-.7 1.5-1.5v-2l.6-.1c1.8-.3 3.5-.7 5.1-1.4l.5-.2 1 1.7c.3.5.8.8 1.3.8.3 0 .5-.1.7-.2l3.4-1.9c.3-.2.6-.5.7-.9.1-.4 0-.8-.2-1.1l-1-1.7.4-.4c1.4-1.1 2.6-2.4 3.7-3.7l.4-.4 1.7 1c.2.1.5.2.7.2.5 0 1-.3 1.3-.8l1.9-3.4c.4-.7.2-1.6-.6-2.1l-1.7-1 .2-.5c.7-1.7 1.1-3.4 1.4-5.1l.1-.6h2c.8 0 1.5-.7 1.5-1.5v-3.9c0-.4-.2-.8-.4-1.1-.3-.3-.7-.4-1.1-.4h-2l-.1-.6c-.3-1.8-.8-3.5-1.4-5.1l-.2-.5 1.7-1c.7-.4 1-1.3.6-2.1L137 53c-.3-.5-.8-.8-1.3-.8-.3 0-.5.1-.7.2l-1.7 1-.4-.4c-1.1-1.4-2.4-2.6-3.7-3.7l-.4-.4 1-1.7c.2-.3.3-.8.2-1.1-.1-.4-.4-.7-.7-.9l-3.4-1.9c-.2-.1-.5-.2-.7-.2-.5 0-1 .3-1.3.8l-1 1.7-.5-.2c-1.6-.6-3.3-1.1-5.1-1.4l-.6-.1v-2c0-.8-.7-1.5-1.5-1.5h-3.9c-.8 0-1.5.7-1.5 1.5v2l-.6.1c-1.7.3-3.4.7-5.1 1.4l-.5.2-1-1.7c-.3-.5-.8-.8-1.3-.8-.3 0-.5.1-.7.2l-3.4 1.9c-.3.2-.6.5-.7.9-.1.4-.1.8.1 1.1l1 1.7-.4.4c-1.3 1.1-2.6 2.3-3.7 3.7l-.4.4-1.7-1c-.2-.1-.5-.2-.7-.2-.5 0-1 .3-1.3.8l-1.9 3.4c-.4.7-.2 1.6.6 2.1l1.7 1-.6.5c-.7 1.7-1.1 3.4-1.4 5.1l-.1.6h-2c-.8 0-1.5.7-1.5 1.5V71c0 .8.7 1.5 1.5 1.5h2l.1.6c.3 1.8.7 3.5 1.4 5.1l.2.5-1.7 1c-.7.4-1 1.3-.6 2.1l1.9 3.4c.3.5.8.8 1.3.8.3 0 .5-.1.7-.2l1.7-1 .4.4c1.1 1.4 2.4 2.6 3.7 3.7l.4.4-1 1.7c-.2.3-.3.8-.2 1.1.1.4.4.7.7.9l3.4 1.9c.2.1.5.2.7.2.5 0 1-.3 1.3-.8l1.3-1.6zm9.6-3.3c-11.2 0-20.3-9.1-20.3-20.3 0-11.2 9.1-20.3 20.3-20.3s20.3 9.1 20.3 20.3c0 11.2-9.1 20.3-20.3 20.3zm0-39.3c-10.5 0-19 8.5-19 19s8.5 19 19 19 19-8.5 19-19-8.5-19-19-19z"/></g></svg>