<?xml version="1.0" encoding="utf-8"?>
<!-- Generator: Adobe Illustrator 21.1.0, SVG Export Plug-In . SVG Version: 6.00 Build 0)  -->
<svg version="1.1" id="Ebene_1" xmlns="http://www.w3.org/2000/svg" xmlns:xlink="http://www.w3.org/1999/xlink" x="0px" y="0px"
	 viewBox="0 0 50 50" style="enable-background:new 0 0 50 50;" xml:space="preserve">
<style type="text/css">
	.st0{fill:#F9F9F9;}
</style>
<path class="st0" d="M47.6,21.6h-1.2c-0.3-1.5-0.6-3-1.2-4.4l1-0.6c0.9-0.5,1.2-1.6,0.7-2.5l-1.6-2.8c-0.5-0.9-1.6-1.2-2.5-0.7
	l-1,0.6c-0.9-1.2-2-2.2-3.2-3.2l0.6-1c0.5-0.9,0.2-2-0.7-2.5L35.8,3c-0.9-0.5-2-0.2-2.5,0.7l-0.6,1c-1.4-0.5-2.8-0.9-4.4-1.2V2.3
	c0-1-0.8-1.8-1.8-1.8h-3.2c-1,0-1.8,0.8-1.8,1.8v1.2c-1.5,0.2-2.9,0.6-4.3,1.2l-0.6-1C16.2,2.8,15,2.5,14.2,3l-2.8,1.6
	c-0.9,0.5-1.2,1.6-0.7,2.5l0.6,1c-1.2,0.9-2.2,2-3.2,3.2l-1-0.6c-0.9-0.5-2-0.2-2.5,0.7L3,14.1c-0.5,0.9-0.2,2,0.7,2.5l1,0.6
	c-0.5,1.4-0.9,2.8-1.2,4.4H2.3c-1,0-1.8,0.8-1.8,1.8v3.2c0,1,0.8,1.8,1.8,1.8h1.2c0.2,1.5,0.6,3,1.2,4.4l-1,0.6
	C2.8,33.9,2.5,35,3,35.9l1.6,2.8c0.5,0.9,1.6,1.2,2.5,0.7l1-0.6c0.9,1.2,2,2.2,3.2,3.2l-0.6,1c-0.5,0.9-0.2,2,0.7,2.5l2.8,1.6
	c0.9,0.5,2,0.2,2.5-0.7l0.6-1c1.4,0.5,2.8,0.9,4.3,1.2v1.2c0,1,0.8,1.8,1.8,1.8h3.2c1,0,1.8-0.8,1.8-1.8v-1.2c1.5-0.2,3-0.6,4.4-1.2
	l0.6,1c0.5,0.9,1.6,1.2,2.5,0.7l2.8-1.6c0.9-0.5,1.2-1.6,0.7-2.5l-0.6-1c1.2-0.9,2.2-2,3.2-3.2l1,0.6c0.9,0.5,2,0.2,2.5-0.7l1.6-2.8
	c0.5-0.9,0.2-2-0.7-2.5l-1-0.6c0.5-1.4,0.9-2.8,1.2-4.3h1.2c1,0,1.8-0.8,1.8-1.8v-3.2C49.5,22.4,48.6,21.6,47.6,21.6z M25,41.3
	C16,41.3,8.7,34,8.7,25S16,8.7,25,8.7S41.3,16,41.3,25S34,41.3,25,41.3z"/>
</svg>
