<?xml version="1.0" encoding="utf-8"?>
<!-- Generator: Adobe Illustrator 21.1.0, SVG Export Plug-In . SVG Version: 6.00 Build 0)  -->
<svg version="1.1" id="Ebene_1" xmlns="http://www.w3.org/2000/svg" xmlns:xlink="http://www.w3.org/1999/xlink" x="0px" y="0px"
	 viewBox="0 0 313.3 200" style="enable-background:new 0 0 313.3 200;" xml:space="preserve">
<style type="text/css">
	.st0{opacity:0.2;fill:#DDDDDD;}
	.st1{fill:#FFFFFF;}
</style>
<path class="st0" d="M244.9,85.7h-4.6c-1-5.9-2.4-11.6-4.5-17l3.9-2.2c3.4-2,4.5-6.3,2.6-9.7L236,45.9c-2-3.4-6.3-4.5-9.7-2.6
	l-3.9,2.3c-3.7-4.6-7.9-8.7-12.4-12.4l2.2-3.9c2-3.4,0.8-7.7-2.6-9.7l-10.9-6.3c-3.4-2-7.7-0.8-9.7,2.6l-2.3,3.9
	c-5.4-2.1-11.1-3.6-17-4.5v-4.6c0-3.9-3.2-7.1-7.1-7.1h-12.3c-3.9,0-7.1,3.2-7.1,7.1v4.6c-5.9,0.9-11.5,2.5-16.9,4.6l-2.3-4
	c-1.9-3.4-6.3-4.5-9.7-2.6l-10.9,6.3c-3.4,1.9-4.5,6.3-2.6,9.7l2.3,3.9c-4.6,3.7-8.7,7.9-12.4,12.5l-4-2.3C83.3,41.5,79,42.6,77,46
	l-6.3,10.8c-1.9,3.4-0.8,7.7,2.6,9.7l3.9,2.3c-2.1,5.4-3.7,11.1-4.6,17h-4.5c-3.9,0-7.1,3.2-7.1,7.1v12.6c0,3.9,3.2,7.1,7.1,7.1h4.6
	c0.9,5.9,2.4,11.6,4.5,17l-3.9,2.2c-3.4,1.9-4.5,6.3-2.6,9.7l6.3,10.9c2,3.4,6.3,4.5,9.7,2.6l3.9-2.3c3.7,4.6,7.9,8.7,12.4,12.4
	l-2.3,3.9c-2,3.4-0.8,7.7,2.6,9.7l10.9,6.3c3.4,1.9,7.7,0.8,9.7-2.6l2.3-4c5.4,2.1,11.1,3.7,16.9,4.6v4.6c0,3.9,3.2,7.1,7.1,7.1
	h12.6c3.9,0,7.1-3.2,7.1-7.1V183c5.9-0.9,11.6-2.4,17-4.5l2.3,3.9c1.9,3.4,6.3,4.5,9.7,2.6l10.9-6.3c3.4-2,4.5-6.3,2.6-9.7l-2.3-3.9
	c4.6-3.7,8.7-7.9,12.4-12.4l3.9,2.3c3.4,2,7.7,0.8,9.7-2.6l6.3-10.9c1.9-3.4,0.8-7.7-2.6-9.7l-4-2.3c2.1-5.4,3.7-11,4.6-16.9h4.6
	c3.9,0,7.1-3.2,7.1-7.1V92.9C252,88.9,248.8,85.7,244.9,85.7z M156.6,162.8c-35.2,0-63.7-28.5-63.7-63.7s28.5-63.7,63.7-63.7
	s63.7,28.5,63.7,63.7S191.8,162.8,156.6,162.8z"/>
<g id="Text_x5F_CC">
	<path class="st1" d="M74.9,135.4c-4.5,8.8-11.2,13.2-20.1,13.2c-7,0-12.5-2.4-16.6-7.1c-4.1-4.7-6.1-11-6.1-18.8
		c0-7.9,2-14.1,5.9-18.6c3.9-4.5,9.4-6.8,16.4-6.8c4.5,0,8.4,1,11.6,2.9c3.3,2,5.6,4.8,7.1,8.5l8.2-2.7l-0.1-80h-8.1v69.4
		c-0.6-0.4-1.2-0.8-1.8-1.2c-4.5-2.6-10.2-4-17-4c-1.1,0-2.2,0.1-3.2,0.1c0.4-0.2,0.8-0.4,1.2-0.7c4.7-2.9,8.4-7,11-12.5l-7-3.5
		c-4.5,8.8-11.2,13.2-20.1,13.2c-7,0-12.5-2.4-16.6-7.1c-4.1-4.7-6.1-11-6.1-18.8c0-7.9,2-14.1,5.9-18.6c3.9-4.5,9.4-6.8,16.4-6.8
		c4.5,0,8.4,1,11.6,2.9c3.3,2,5.6,4.8,7.1,8.5l8.2-2.7c-2.1-5.2-5.5-9.1-10-11.8c-4.5-2.6-10.2-4-17-4c-9.7,0-17.3,2.9-22.8,8.6
		C7.5,42.9,4.8,50.8,4.8,61c0,6.8,1.2,12.6,3.7,17.6c2.5,5,6,8.8,10.7,11.4c4.7,2.7,10.2,4,16.6,4c0.8,0,1.5,0,2.3-0.1
		c-2.4,1.3-4.6,3-6.6,5c-5.5,5.8-8.2,13.7-8.2,23.9c0,6.8,1.2,12.6,3.7,17.6c2.5,5,6,8.8,10.7,11.4c4.7,2.7,10.2,4,16.6,4
		c6.3,0,11.8-1.4,16.5-4.3c4.7-2.9,8.4-7,11-12.5L74.9,135.4z"/>
	<path d="M54.4,156.4c-6.5,0-12.2-1.4-17-4.1c-4.8-2.7-8.5-6.7-11-11.7c-2.5-5-3.7-11-3.7-17.9c0-10.3,2.8-18.5,8.4-24.3
		c1.3-1.4,2.8-2.7,4.5-3.8c-6.4,0-12-1.4-16.7-4.1c-4.8-2.7-8.5-6.7-11-11.7c-2.5-5-3.8-11-3.8-17.9c0-10.3,2.8-18.5,8.4-24.3
		c5.6-5.9,13.4-8.8,23.3-8.8c6.9,0,12.7,1.4,17.3,4.1c4.7,2.7,8.1,6.8,10.3,12.1l0.3,0.7l-9.5,3.1L54,47.2c-1.4-3.5-3.7-6.3-6.8-8.2
		c-3.1-1.9-6.9-2.8-11.3-2.8c-6.8,0-12.2,2.2-15.9,6.6c-3.8,4.4-5.7,10.5-5.7,18.2c0,7.6,2,13.8,6,18.4c3.9,4.6,9.3,6.9,16,6.9
		c8.6,0,15.2-4.3,19.5-12.9l0.3-0.6l8.2,4.1L64,77.5c-2.5,5.2-5.9,9.2-10.2,12.1c0.2,0,0.4,0,0.5,0c6.9,0,12.7,1.4,17.3,4.1
		c0.3,0.2,0.5,0.3,0.8,0.5V25.4h9.5l0.1,81.1l-9.2,3.1l-0.2-0.6c-1.4-3.5-3.7-6.3-6.8-8.2c-3.1-1.9-6.9-2.8-11.3-2.8
		c-6.8,0-12.2,2.2-15.9,6.6c-3.8,4.4-5.7,10.5-5.7,18.2c0,7.6,2,13.8,6,18.4c3.9,4.6,9.3,6.9,16,6.9c8.7,0,15.1-4.2,19.5-12.9
		l0.3-0.6l8.2,4.1l-0.3,0.6c-2.7,5.6-6.5,9.9-11.3,12.8C66.4,154.9,60.7,156.4,54.4,156.4z M38.1,93.2l0.4,1.3
		c-2.4,1.3-4.6,2.9-6.4,4.8c-5.3,5.6-8,13.5-8,23.4c0,6.6,1.2,12.5,3.6,17.3c2.4,4.8,5.9,8.6,10.4,11.1c4.6,2.6,10.1,3.9,16.3,3.9
		c6.1,0,11.5-1.4,16.2-4.2c4.4-2.7,8-6.6,10.5-11.6l-5.9-2.9c-4.6,8.6-11.4,13-20.4,13c-7.1,0-12.9-2.5-17.1-7.3
		c-4.2-4.8-6.3-11.3-6.3-19.3c0-8,2-14.4,6-19.1c4-4.7,9.7-7,17-7c4.6,0,8.6,1,12,3c3.2,1.9,5.6,4.7,7.1,8.2l7.1-2.4l-0.1-78.8h-6.8
		v70L72.7,96c-0.6-0.5-1.2-0.8-1.8-1.2c-4.4-2.6-10-3.9-16.6-3.9c-0.9,0-1.9,0-3.2,0.1l-0.4-1.3l0.3-0.2c0.3-0.2,0.6-0.3,0.9-0.5
		c4.4-2.7,8-6.6,10.5-11.6l-5.9-2.9c-4.6,8.6-11.4,13-20.4,13c-7.1,0-12.9-2.5-17.1-7.3C15,75.4,12.9,68.9,12.9,61
		c0-8,2-14.4,6-19.1c4-4.7,9.7-7,17-7c4.6,0,8.6,1,12,3c3.2,1.9,5.6,4.7,7.1,8.2l6.9-2.3c-2.1-4.7-5.3-8.3-9.5-10.8
		c-4.4-2.6-10-3.9-16.6-3.9c-9.5,0-17,2.8-22.3,8.4c-5.3,5.6-8,13.5-8,23.4c0,6.6,1.2,12.5,3.6,17.3c2.4,4.8,5.9,8.6,10.4,11.1
		c4.6,2.6,10,3.9,16.3,3.9C36.6,93.3,37.4,93.3,38.1,93.2z"/>
</g>
<g id="Text_x5F_D">
	<path class="st1" d="M227.4,85.2c-1.5,3.1-3.5,5.4-6,6.7c-2.5,1.4-5.6,2-9.2,2c-6.2,0-10.7-2.1-13.6-6.2
		c-2.9-4.2-4.4-10.4-4.4-18.9c0-17,6-25.6,18-25.6c3.7,0,6.8,0.7,9.3,2c2.5,1.4,4.4,3.5,6,6.5h0.1l-0.1-5.5V26.1h8.1v57
		c0,5.1,0.1,8.4,0.3,10.1h-7.8c-0.1-0.5-0.2-1.6-0.3-3.3c-0.1-1.7-0.2-3.2-0.2-4.5L227.4,85.2L227.4,85.2z M202.8,68.6
		c0,6.8,0.9,11.7,2.7,14.7c1.8,2.9,4.7,4.4,8.8,4.4c4.6,0,7.9-1.6,10-4.8c2.1-3.2,3.1-8.1,3.1-14.9c0-6.5-1-11.2-3.1-14.2
		c-2.1-3-5.4-4.5-9.9-4.5c-4.1,0-7.1,1.5-8.9,4.5C203.7,56.9,202.8,61.8,202.8,68.6z"/>
	<path d="M212.2,94.7c-6.4,0-11.1-2.2-14.2-6.5c-3-4.2-4.5-10.7-4.5-19.3c0-17.4,6.3-26.2,18.7-26.2c3.8,0,7,0.7,9.6,2.1
		c2,1.1,3.6,2.6,5,4.7l0-3.1v-21h9.5V83c0,5.1,0.1,8.4,0.3,10l0.1,0.8h-9.1l-0.1-0.5c-0.1-0.5-0.2-1.6-0.3-3.4
		c0-0.8-0.1-1.6-0.1-2.3c-1.4,2.3-3.2,4-5.2,5.1C219.2,93.9,216,94.7,212.2,94.7z M212.2,44c-5.7,0-10.1,2.1-12.9,6.1
		c-2.9,4.1-4.4,10.4-4.4,18.8c0,8.3,1.4,14.5,4.2,18.5c2.8,4,7.1,5.9,13.1,5.9c3.5,0,6.5-0.7,8.9-1.9c2.3-1.3,4.3-3.4,5.7-6.4
		l0.2-0.4h1.3v0.7c0,1.3,0.1,2.8,0.2,4.5c0.1,1.2,0.1,2.1,0.2,2.7h6.4c-0.1-1.8-0.2-4.9-0.2-9.4V26.7h-6.8v19.6l0.1,6.1H227
		l-0.2-0.4c-1.4-2.8-3.4-4.9-5.7-6.2C218.8,44.6,215.8,44,212.2,44z M214.3,88.4c-4.3,0-7.5-1.6-9.4-4.7c-1.9-3.1-2.8-8-2.8-15
		c0-7,0.9-11.9,2.8-15.1c1.9-3.2,5.1-4.9,9.5-4.9c4.8,0,8.3,1.6,10.5,4.8c2.2,3.1,3.2,8,3.2,14.6c0,6.8-1.1,11.9-3.2,15.2
		C222.7,86.7,219.1,88.4,214.3,88.4z M214.4,50c-3.9,0-6.6,1.4-8.3,4.2c-1.7,2.9-2.6,7.7-2.6,14.4c0,6.7,0.9,11.5,2.6,14.3
		c1.7,2.8,4.4,4.1,8.2,4.1c4.4,0,7.5-1.5,9.5-4.5c2-3.1,3-7.9,3-14.5c0-6.3-1-11-3-13.8C221.8,51.4,218.7,50,214.4,50z"/>
</g>
<g id="Text_x5F_O1">
	<path class="st1" d="M134.8,130.3c0,8.6-1.9,14.9-5.6,19.1c-3.8,4.2-9.2,6.3-16.4,6.3c-7.1,0-12.5-2.2-16.2-6.5
		c-3.6-4.3-5.5-10.6-5.5-18.9c0-16.9,7.3-25.3,21.9-25.3c7.5,0,13,2.1,16.5,6.2C133.1,115.2,134.8,121.6,134.8,130.3z M126.3,130.3
		c0-6.7-1-11.6-3-14.7c-2-3.1-5.4-4.6-10.1-4.6c-4.8,0-8.2,1.6-10.3,4.7c-2.1,3.1-3.2,8-3.2,14.6c0,6.5,1,11.3,3.1,14.5
		c2.1,3.2,5.4,4.9,9.9,4.9c4.9,0,8.4-1.6,10.5-4.7C125.3,141.8,126.3,136.9,126.3,130.3z"/>
	<path d="M112.8,156.3c-7.3,0-12.9-2.3-16.7-6.8c-3.7-4.5-5.6-10.9-5.6-19.3c0-17.2,7.6-26,22.6-26c7.6,0,13.3,2.2,17,6.4
		c3.6,4.2,5.4,10.8,5.4,19.6c0,8.7-2,15.3-5.8,19.6C125.8,154.1,120.1,156.3,112.8,156.3z M113.1,105.6c-7.1,0-12.4,2.1-15.9,6.1
		c-3.5,4.1-5.3,10.3-5.3,18.5c0,8,1.8,14.2,5.3,18.4c3.5,4.2,8.8,6.3,15.6,6.3c6.9,0,12.3-2,15.9-6.1c3.6-4,5.5-10.3,5.5-18.7
		c0-8.4-1.7-14.7-5.1-18.7C125.7,107.6,120.3,105.6,113.1,105.6z M112.7,150.3c-4.7,0-8.2-1.7-10.4-5.2c-2.2-3.3-3.2-8.3-3.2-14.9
		c0-6.7,1.1-11.8,3.3-15c2.2-3.3,5.9-5,10.9-5c5,0,8.5,1.6,10.7,4.9c2.1,3.2,3.1,8.2,3.1,15.1c0,6.8-1.1,11.8-3.3,15.1
		C121.5,148.6,117.8,150.3,112.7,150.3z M113.2,111.7c-4.6,0-7.8,1.4-9.8,4.4c-2,3-3.1,7.8-3.1,14.2c0,6.3,1,11,3,14.2
		c2,3.1,5,4.5,9.3,4.5c4.7,0,7.9-1.4,9.9-4.4c2-3,3-7.8,3-14.3c0-6.6-1-11.4-2.9-14.3C120.9,113.1,117.7,111.7,113.2,111.7z"/>
</g>
<g id="Text_x5F_UL">
	<path class="st1" d="M183.9,82.6V44.2h-8.1v28.3c0,4.8-1.1,8.5-3.4,11.2c-2.3,2.7-5.3,4-9.3,4c-2.7,0-4.7-0.4-6.1-1.2
		c-1.4-0.8-2.4-2.1-3-3.8c-0.6-1.8-0.9-4.3-0.9-7.5v-31h-8.2v32.6c0,0.7,0,1.4,0.1,2.1v75.9h8.1V92.8c2,0.7,4.5,1.1,7.3,1.1
		c3.6,0,6.7-0.7,9.1-2.1c2.5-1.4,4.6-3.8,6.5-7.2h0.1c0.1,2.4,0.1,4,0.2,4.9c0,0.9,0.1,1.6,0.1,2.3c0,0.7,0.1,1.1,0.1,1.2h7.7
		C184,91.8,183.9,88.3,183.9,82.6z"/>
	<path d="M153.8,155.4h-9.5V78.9c0-0.6-0.1-1.3-0.1-2.1V43.5h9.5v31.7c0,3.1,0.3,5.6,0.9,7.3c0.6,1.6,1.5,2.8,2.7,3.5
		c1.3,0.7,3.2,1.1,5.8,1.1c3.7,0,6.6-1.3,8.7-3.8c2.1-2.6,3.2-6.2,3.2-10.7v-29h9.5v39.1c0,5.6,0.1,9.1,0.3,10.3l0.1,0.8h-9
		l-0.1-0.5c0-0.2-0.1-0.7-0.1-1.3c0-0.4,0-0.7-0.1-1.2c0-0.4,0-0.7-0.1-1.1c0-0.5-0.1-1.4-0.1-2.8c-1.7,2.6-3.6,4.5-5.7,5.6
		c-2.5,1.5-5.7,2.2-9.5,2.2c-2.5,0-4.7-0.3-6.6-0.9L153.8,155.4L153.8,155.4z M145.6,154.1h6.8V91.9l0.9,0.3c2,0.7,4.4,1.1,7.1,1.1
		c3.5,0,6.5-0.7,8.8-2c2.3-1.3,4.4-3.6,6.2-6.9l0.2-0.3h1.2l0,0.7c0.1,2.7,0.1,4.1,0.2,4.8c0,0.4,0,0.8,0.1,1.1c0,0.4,0,0.8,0.1,1.2
		c0,0.2,0,0.4,0,0.6h6.3c-0.1-1.7-0.2-4.9-0.2-9.8V44.9h-6.8v27.6c0,4.9-1.2,8.8-3.5,11.6c-2.4,2.8-5.7,4.3-9.8,4.3
		c-2.8,0-4.9-0.4-6.4-1.3c-1.5-0.9-2.6-2.3-3.3-4.2c-0.7-1.8-1-4.4-1-7.7V44.9h-6.8v31.9c0,0.8,0,1.5,0.1,2l0,0L145.6,154.1
		L145.6,154.1z"/>
</g>
<g id="Text_x5F_O2">
	<path class="st1" d="M206.8,130.3c0,8.6-1.9,14.9-5.6,19.1c-3.8,4.2-9.2,6.3-16.4,6.3c-7.1,0-12.5-2.2-16.2-6.5
		c-3.6-4.3-5.5-10.6-5.5-18.9c0-16.9,7.3-25.3,21.9-25.3c7.5,0,13,2.1,16.5,6.2C205.1,115.2,206.8,121.6,206.8,130.3z M198.3,130.3
		c0-6.7-1-11.6-3-14.7c-2-3.1-5.4-4.6-10.1-4.6c-4.8,0-8.2,1.6-10.3,4.7c-2.1,3.1-3.2,8-3.2,14.6c0,6.5,1,11.3,3.1,14.5
		c2.1,3.2,5.4,4.9,9.9,4.9c4.9,0,8.4-1.6,10.5-4.7C197.2,141.8,198.3,136.9,198.3,130.3z"/>
	<path d="M184.8,156.3c-7.3,0-12.9-2.3-16.7-6.8c-3.7-4.5-5.6-10.9-5.6-19.3c0-17.2,7.6-26,22.6-26c7.6,0,13.3,2.2,17,6.4
		c3.6,4.2,5.5,10.8,5.5,19.6c0,8.7-2,15.3-5.8,19.6C197.8,154.1,192.1,156.3,184.8,156.3z M185.1,105.6c-7.1,0-12.4,2.1-15.9,6.1
		c-3.5,4.1-5.3,10.3-5.3,18.5c0,8,1.8,14.2,5.3,18.4c3.5,4.2,8.8,6.3,15.7,6.3c6.9,0,12.3-2,15.9-6.1c3.6-4,5.5-10.3,5.5-18.7
		c0-8.4-1.7-14.7-5.1-18.7C197.7,107.6,192.3,105.6,185.1,105.6z M184.7,150.3c-4.7,0-8.2-1.7-10.4-5.2c-2.2-3.3-3.2-8.3-3.2-14.9
		c0-6.7,1.1-11.8,3.3-15c2.3-3.3,5.9-5,10.9-5c4.9,0,8.5,1.6,10.7,4.9c2.1,3.2,3.1,8.1,3.1,15.1c0,6.8-1.1,11.8-3.3,15.1
		C193.5,148.6,189.8,150.3,184.7,150.3z M185.2,111.7c-4.6,0-7.8,1.4-9.8,4.4c-2,3-3.1,7.8-3.1,14.2c0,6.3,1,11,3,14.2
		c2,3.1,5,4.5,9.3,4.5c4.7,0,7.9-1.4,9.9-4.4c2-3,3-7.8,3-14.3c0-6.6-1-11.4-2.9-14.3C192.9,113.1,189.7,111.7,185.2,111.7z"/>
</g>
<g id="Text_x5F_N">
	<path class="st1" d="M248,154.7v-31c0-3.2-0.3-5.7-0.9-7.5c-0.6-1.8-1.6-3-3-3.8c-1.4-0.8-3.4-1.2-6.1-1.2c-3.9,0-7,1.4-9.3,4
		c-2.3,2.7-3.4,6.4-3.4,11.2v28.3h-8.1v-38.4c0-5.7-0.1-9.2-0.3-10.4h7.7c0,0.1,0.1,0.5,0.1,1.2c0,0.7,0.1,1.4,0.1,2.3
		c0.1,0.9,0.1,2.5,0.2,4.9h0.1c1.9-3.4,4-5.8,6.5-7.2c2.5-1.4,5.5-2.1,9.1-2.1c5.4,0,9.3,1.3,11.8,4c2.5,2.7,3.7,7.1,3.7,13.2v32.6
		H248z"/>
	<path d="M256.8,155.4h-9.5v-31.6c0-3.1-0.3-5.6-0.9-7.3c-0.6-1.6-1.5-2.8-2.7-3.5c-1.3-0.7-3.2-1.1-5.8-1.1c-3.7,0-6.6,1.3-8.7,3.8
		c-2.1,2.5-3.2,6.1-3.2,10.7v29h-9.5v-39.1c0-5.6-0.1-9.1-0.3-10.3l-0.1-0.8h9l0.1,0.5c0.1,0.2,0.1,0.7,0.1,1.3c0,0.2,0,0.5,0,0.8
		c0,0.5,0,0.9,0.1,1.5c0,0.6,0.1,1.5,0.1,2.8c1.7-2.6,3.6-4.4,5.7-5.6c2.6-1.5,5.8-2.2,9.5-2.2c5.5,0,9.6,1.4,12.3,4.2
		c2.6,2.8,3.9,7.4,3.9,13.7L256.8,155.4L256.8,155.4L256.8,155.4z M248.7,154.1h6.8v-31.9c0-5.9-1.2-10.2-3.6-12.8
		c-2.3-2.5-6.1-3.8-11.3-3.8c-3.5,0-6.5,0.7-8.8,2c-2.3,1.3-4.4,3.7-6.2,6.9l-0.2,0.3h-1.2l0-1.2c-0.1-2-0.1-3.5-0.1-4.3
		c0-0.5,0-1-0.1-1.5c0-0.3,0-0.6,0-0.8c0-0.2,0-0.4,0-0.6h-6.3c0.1,1.7,0.2,4.9,0.2,9.8v37.8h6.8v-27.6c0-4.9,1.2-8.8,3.6-11.6
		c2.4-2.8,5.7-4.3,9.8-4.3c2.8,0,4.9,0.4,6.4,1.3c1.5,0.9,2.6,2.3,3.3,4.2c0.7,1.8,1,4.4,1,7.7L248.7,154.1L248.7,154.1z"/>
</g>
<g id="Text_x5F_Y">
	<path class="st1" d="M270.8,173.9c-2.2,0-4.1-0.2-5.6-0.5v-6.1c1.1,0.2,2.4,0.3,3.8,0.3c5.1,0,9.1-3.7,12-11.2l0.8-1.9l-19.4-48.6
		h8.7l10.3,27c0.1,0.4,0.3,0.9,0.5,1.5c0.2,0.6,0.9,2.6,2,5.9c1.1,3.3,1.8,5.2,1.9,5.6l3.2-8.9l10.7-31.1h8.6l-18.8,48.9
		c-2,5.2-3.9,9.1-5.6,11.6c-1.7,2.5-3.7,4.4-5.8,5.7C275.9,173.3,273.5,173.9,270.8,173.9z"/>
	<path d="M270.8,174.6c-2.2,0-4.2-0.2-5.8-0.5l-0.5-0.1v-7.4l0.8,0.1c1.1,0.2,2.3,0.3,3.7,0.3c4.8,0,8.5-3.5,11.4-10.7l0.7-1.7
		l-19.6-49.3h10.1l10.5,27.5c0.1,0.3,0.3,0.8,0.4,1.2l0.1,0.3c0.2,0.6,0.9,2.6,2,5.9c0.4,1.2,0.9,2.6,1.3,3.7l2.5-7l10.9-31.6h10
		L290.1,155c-2,5.2-3.9,9.2-5.7,11.8c-1.8,2.6-3.8,4.6-6,5.9C276.1,174,273.6,174.6,270.8,174.6z M265.9,172.9
		c1.4,0.3,3,0.4,4.9,0.4c2.5,0,4.8-0.6,6.9-1.8c2-1.2,3.9-3,5.6-5.5c1.7-2.5,3.6-6.4,5.6-11.5l18.4-47.9h-7.1l-10.6,30.7l-3.9,11
		l-0.5-2.2c0-0.2-0.3-1.1-1.8-5.5c-1.1-3.2-1.8-5.3-2-5.9l-0.1-0.3c-0.2-0.5-0.3-0.9-0.4-1.2l-10.1-26.6h-7.2l19.1,48l-0.9,2.2
		c-3,7.7-7.3,11.6-12.6,11.6c-1.1,0-2.2-0.1-3.1-0.2L265.9,172.9L265.9,172.9z"/>
</g>
<g id="Text_x5F_Gear">
	<path class="st1" d="M140.3,65h-1.4c-0.3-1.8-0.7-3.6-1.4-5.2l1.2-0.7c1-0.6,1.4-1.9,0.8-3l-1.9-3.4c-0.6-1-1.9-1.4-3-0.8l-1.2,0.7
		c-1.1-1.4-2.4-2.7-3.8-3.8l0.7-1.2c0.6-1,0.2-2.4-0.8-3l-3.4-1.9c-1-0.6-2.4-0.2-3,0.8l-0.7,1.2c-1.7-0.6-3.4-1.1-5.2-1.4v-1.4
		c0-1.2-1-2.2-2.2-2.2h-3.9c-1.2,0-2.2,1-2.2,2.2v1.4c-1.8,0.3-3.6,0.8-5.2,1.4l-0.7-1.2c-0.6-1-1.9-1.4-3-0.8l-3.4,1.9
		c-1,0.6-1.4,1.9-0.8,3l0.7,1.2c-1.4,1.1-2.7,2.4-3.8,3.8l-1.2-0.7c-1-0.6-2.4-0.2-3,0.8L86.5,56c-0.6,1-0.2,2.4,0.8,3l1.2,0.7
		c-0.6,1.7-1.1,3.4-1.4,5.2h-1.4c-1.2,0-2.2,1-2.2,2.2V71c0,1.2,1,2.2,2.2,2.2h1.4c0.3,1.8,0.7,3.6,1.4,5.3l-1.2,0.7
		c-1,0.6-1.4,1.9-0.8,3l1.9,3.4c0.6,1,1.9,1.4,3,0.8l1.2-0.7c1.1,1.4,2.4,2.7,3.8,3.8l-0.7,1.2c-0.6,1-0.2,2.4,0.8,3l3.4,1.9
		c1,0.6,2.4,0.2,3-0.8l0.7-1.2c1.7,0.6,3.4,1.1,5.2,1.4v1.4c0,1.2,1,2.2,2.2,2.2h3.9c1.2,0,2.2-1,2.2-2.2V95
		c1.8-0.3,3.6-0.7,5.2-1.4l0.7,1.2c0.6,1,1.9,1.4,3,0.8l3.4-1.9c1-0.6,1.4-1.9,0.8-3l-0.7-1.2c1.4-1.1,2.7-2.4,3.8-3.8l1.2,0.7
		c1,0.6,2.4,0.2,3-0.8l1.9-3.4c0.6-1,0.2-2.4-0.8-3l-1.2-0.7c0.6-1.7,1.1-3.4,1.4-5.2h1.4c1.2,0,2.2-1,2.2-2.2l0-3.9
		C142.5,66,141.5,65,140.3,65z M113,88.8c-10.9,0-19.7-8.8-19.7-19.7c0-10.9,8.8-19.7,19.7-19.7c10.9,0,19.7,8.8,19.7,19.7
		C132.7,80,123.9,88.8,113,88.8z"/>
	<path d="M114.9,99.2h-3.9c-1.6,0-2.9-1.3-2.9-2.9v-0.8c-1.4-0.3-2.8-0.6-4.3-1.2l-0.4,0.7c-0.5,0.9-1.5,1.4-2.5,1.4
		c-0.5,0-1-0.1-1.4-0.4l-3.4-1.9c-0.7-0.4-1.1-1-1.3-1.7c-0.2-0.7-0.1-1.5,0.3-2.2l0.4-0.7c-1.1-0.9-2.2-2-3.1-3.1l-0.7,0.4
		c-0.4,0.2-0.9,0.4-1.4,0.4c-1,0-2-0.5-2.5-1.4l-1.9-3.4c-0.8-1.4-0.3-3.1,1.1-3.9l0.7-0.4c-0.5-1.3-0.9-2.8-1.1-4.3h-0.8
		c-1.6,0-2.9-1.3-2.9-2.9v-3.9c0-1.6,1.3-2.9,2.9-2.9h0.8c0.3-1.4,0.6-2.8,1.2-4.3L87,59.6c-1.4-0.8-1.8-2.5-1-3.9l1.9-3.4
		c0.5-0.9,1.5-1.4,2.5-1.4c0.5,0,1,0.1,1.4,0.4l0.7,0.4c1-1.2,2-2.2,3.1-3.1l-0.4-0.7c-0.4-0.7-0.5-1.4-0.3-2.2
		c0.2-0.7,0.7-1.4,1.3-1.7l3.4-1.9c0.4-0.3,0.9-0.4,1.4-0.4c1,0,2,0.5,2.5,1.4l0.4,0.7c1.4-0.5,2.8-0.9,4.3-1.2v-0.8
		c0-1.6,1.3-2.9,2.9-2.9h3.9c1.6,0,2.9,1.3,2.9,2.9v0.8c1.5,0.3,2.9,0.6,4.3,1.1l0.4-0.7c0.5-0.9,1.5-1.4,2.5-1.4
		c0.5,0,1,0.1,1.4,0.4l3.4,1.9c0.7,0.4,1.1,1,1.3,1.7c0.2,0.7,0.1,1.5-0.3,2.2l-0.4,0.7c1.1,0.9,2.2,2,3.1,3.1l0.7-0.4
		c0.4-0.2,0.9-0.4,1.4-0.4c1,0,2,0.5,2.5,1.4l1.9,3.4c0.8,1.4,0.3,3.1-1,3.9l-0.7,0.4c0.5,1.3,0.9,2.8,1.1,4.3h0.8
		c0.8,0,1.5,0.3,2,0.8c0.5,0.5,0.8,1.3,0.8,2l0,3.9c0,1.6-1.3,2.9-2.9,2.9h-0.8c-0.3,1.4-0.6,2.8-1.2,4.3l0.7,0.4
		c1.4,0.8,1.8,2.5,1,3.9l-1.9,3.4c-0.5,0.9-1.5,1.4-2.5,1.4c-0.5,0-1-0.1-1.4-0.4l-0.7-0.4c-0.9,1.1-2,2.2-3.1,3.1l0.4,0.7
		c0.4,0.7,0.5,1.4,0.3,2.2c-0.2,0.7-0.7,1.4-1.3,1.7l-3.4,1.9c-0.4,0.2-0.9,0.4-1.4,0.4c-1,0-2-0.5-2.5-1.4l-0.4-0.7
		c-1.3,0.5-2.8,0.9-4.3,1.1v0.8C117.8,98,116.5,99.2,114.9,99.2z M103.4,92.7l0.5,0.2c1.8,0.7,3.4,1.1,5.1,1.4l0.6,0.1v2
		c0,0.8,0.7,1.5,1.5,1.5h3.9c0.8,0,1.5-0.7,1.5-1.5v-2l0.6-0.1c1.8-0.3,3.5-0.7,5.1-1.4l0.5-0.2l1,1.7c0.3,0.5,0.8,0.8,1.3,0.8
		c0.3,0,0.5-0.1,0.7-0.2l3.4-1.9c0.3-0.2,0.6-0.5,0.7-0.9c0.1-0.4,0-0.8-0.2-1.1l-1-1.7l0.4-0.4c1.4-1.1,2.6-2.4,3.7-3.7l0.4-0.4
		l1.7,1c0.2,0.1,0.5,0.2,0.7,0.2c0.5,0,1-0.3,1.3-0.8l1.9-3.4c0.4-0.7,0.2-1.6-0.6-2.1l-1.7-1l0.2-0.5c0.7-1.7,1.1-3.4,1.4-5.1
		l0.1-0.6h2c0.8,0,1.5-0.7,1.5-1.5l0-3.9c0-0.4-0.2-0.8-0.4-1.1c-0.3-0.3-0.7-0.4-1.1-0.4h-2l-0.1-0.6c-0.3-1.8-0.8-3.5-1.4-5.1
		l-0.2-0.5l1.7-1c0.7-0.4,1-1.3,0.6-2.1L137,53c-0.3-0.5-0.8-0.8-1.3-0.8c-0.3,0-0.5,0.1-0.7,0.2l-1.7,1l-0.4-0.4
		c-1.1-1.4-2.4-2.6-3.7-3.7l-0.4-0.4l1-1.7c0.2-0.3,0.3-0.8,0.2-1.1c-0.1-0.4-0.4-0.7-0.7-0.9l-3.4-1.9c-0.2-0.1-0.5-0.2-0.7-0.2
		c-0.5,0-1,0.3-1.3,0.8l-1,1.7l-0.5-0.2c-1.6-0.6-3.3-1.1-5.1-1.4l-0.6-0.1v-2c0-0.8-0.7-1.5-1.5-1.5h-3.9c-0.8,0-1.5,0.7-1.5,1.5v2
		l-0.6,0.1c-1.7,0.3-3.4,0.7-5.1,1.4l-0.5,0.2l-1-1.7c-0.3-0.5-0.8-0.8-1.3-0.8c-0.3,0-0.5,0.1-0.7,0.2l-3.4,1.9
		c-0.3,0.2-0.6,0.5-0.7,0.9c-0.1,0.4-0.1,0.8,0.1,1.1l1,1.7l-0.4,0.4c-1.3,1.1-2.6,2.3-3.7,3.7l-0.4,0.4l-1.7-1
		c-0.2-0.1-0.5-0.2-0.7-0.2c-0.5,0-1,0.3-1.3,0.8l-1.9,3.4c-0.4,0.7-0.2,1.6,0.6,2.1l1.7,1L89.2,60c-0.7,1.7-1.1,3.4-1.4,5.1
		l-0.1,0.6h-2c-0.8,0-1.5,0.7-1.5,1.5V71c0,0.8,0.7,1.5,1.5,1.5h2l0.1,0.6c0.3,1.8,0.7,3.5,1.4,5.1l0.2,0.5l-1.7,1
		c-0.7,0.4-1,1.3-0.6,2.1l1.9,3.4c0.3,0.5,0.8,0.8,1.3,0.8c0.3,0,0.5-0.1,0.7-0.2l1.7-1l0.4,0.4c1.1,1.4,2.4,2.6,3.7,3.7l0.4,0.4
		l-1,1.7c-0.2,0.3-0.3,0.8-0.2,1.1c0.1,0.4,0.4,0.7,0.7,0.9l3.4,1.9c0.2,0.1,0.5,0.2,0.7,0.2c0.5,0,1-0.3,1.3-0.8L103.4,92.7z
		 M113,89.4c-11.2,0-20.3-9.1-20.3-20.3c0-11.2,9.1-20.3,20.3-20.3s20.3,9.1,20.3,20.3C133.3,80.3,124.2,89.4,113,89.4z M113,50.1
		c-10.5,0-19,8.5-19,19c0,10.5,8.5,19,19,19s19-8.5,19-19C132,58.6,123.5,50.1,113,50.1z"/>
</g>
</svg>
