<?xml version="1.0" encoding="utf-8"?>
<!-- Generator: Adobe Illustrator 16.0.0, SVG Export Plug-In . SVG Version: 6.00 Build 0)  -->
<!DOCTYPE svg PUBLIC "-//W3C//DTD SVG 1.1//EN" "http://www.w3.org/Graphics/SVG/1.1/DTD/svg11.dtd">
<svg version="1.1" id="Ebene_1" xmlns="http://www.w3.org/2000/svg" xmlns:xlink="http://www.w3.org/1999/xlink" x="0px" y="0px"
	 width="420.5px" height="208.5px" viewBox="0 0 420.5 208.5" enable-background="new 0 0 420.5 208.5" xml:space="preserve">
<g>
	<path fill="#FFFFFF" d="M98.66,152.297c-6.089,11.979-15.176,17.959-27.268,17.959c-9.437,0-16.923-3.225-22.458-9.647
		c-5.538-6.439-8.305-14.947-8.305-25.525c0-10.707,2.656-19.138,7.968-25.275c5.31-6.156,12.747-9.224,22.306-9.224
		c6.087,0,11.346,1.325,15.778,3.979c4.434,2.657,7.65,6.498,9.649,11.519l11.096-3.683L107.356,3.917H96.323v94.127
		c-0.803-0.573-1.633-1.125-2.502-1.635c-6.169-3.59-13.849-5.392-23.041-5.392c-1.49,0-2.934,0.072-4.351,0.169
		c0.564-0.305,1.128-0.597,1.675-0.93c6.436-3.878,11.429-9.533,14.983-16.971l-9.56-4.78C67.44,80.473,58.351,86.461,46.259,86.461
		c-9.436,0-16.924-3.221-22.459-9.653c-5.537-6.431-8.302-14.94-8.302-25.521c0-10.702,2.655-19.129,7.965-25.282
		c5.31-6.146,12.746-9.222,22.306-9.222c6.088,0,11.345,1.331,15.78,3.983c4.432,2.66,7.65,6.497,9.652,11.522l11.089-3.676
		c-2.901-7.07-7.435-12.401-13.603-15.996c-6.169-3.593-13.849-5.394-23.041-5.394c-13.153,0-23.448,3.901-30.883,11.706
		C7.327,26.733,3.609,37.519,3.609,51.287c0,9.188,1.666,17.147,4.996,23.864c3.33,6.72,8.169,11.89,14.523,15.509
		c6.349,3.613,13.877,5.417,22.579,5.417c1.043,0,2.066-0.026,3.075-0.092c-3.305,1.775-6.282,4.006-8.887,6.736
		c-7.437,7.813-11.151,18.598-11.151,32.361c0,9.193,1.661,17.151,4.992,23.859c3.33,6.729,8.171,11.889,14.523,15.51
		c6.353,3.611,13.881,5.428,22.583,5.428c8.496,0,15.963-1.954,22.396-5.822c6.434-3.888,11.429-9.544,14.984-16.981L98.66,152.297z
		"/>
	<path fill="#FFFFFF" d="M305.658,84.194c-2.053,4.249-4.76,7.29-8.125,9.129c-3.365,1.837-7.551,2.756-12.539,2.756
		c-8.375,0-14.521-2.816-18.463-8.459c-3.955-5.633-5.924-14.175-5.924-25.609c0-23.122,8.133-34.685,24.387-34.685
		c5.035,0,9.211,0.92,12.574,2.759c3.34,1.837,6.037,4.757,8.09,8.759h0.119l-0.119-7.411V3.917h11.027v77.271
		c0,6.908,0.117,11.46,0.361,13.661h-10.531c-0.131-0.644-0.264-2.161-0.406-4.533c-0.143-2.362-0.213-4.408-0.213-6.122
		L305.658,84.194L305.658,84.194z M272.201,61.643c0,9.272,1.219,15.906,3.678,19.914c2.436,4.001,6.42,6.002,11.939,6.002
		c6.246,0,10.783-2.161,13.604-6.492c2.828-4.33,4.238-11.052,4.238-20.165c0-8.781-1.41-15.213-4.238-19.303
		c-2.82-4.082-7.314-6.124-13.477-6.124c-5.553,0-9.572,2.053-12.047,6.157C273.432,45.738,272.201,52.409,272.201,61.643z"/>
	<path fill="#FFFFFF" d="M180.045,145.3c0,11.615-2.554,20.255-7.66,25.934c-5.107,5.678-12.528,8.52-22.25,8.52
		c-9.68,0-16.994-2.964-21.933-8.864c-4.945-5.896-7.419-14.426-7.419-25.588c0-22.866,9.908-34.319,29.72-34.319
		c10.13,0,17.586,2.802,22.372,8.367C177.649,124.928,180.045,133.577,180.045,145.3z M168.46,145.3
		c0-9.145-1.36-15.791-4.074-19.942c-2.716-4.149-7.286-6.218-13.696-6.218c-6.454,0-11.123,2.112-14.004,6.337
		c-2.877,4.224-4.318,10.845-4.318,19.823c0,8.751,1.417,15.315,4.259,19.71c2.839,4.393,7.3,6.581,13.387,6.581
		c6.622,0,11.346-2.123,14.187-6.372C167.041,160.973,168.46,154.338,168.46,145.3z"/>
	<path fill="#FFFFFF" d="M246.646,80.698V28.549h-11.029v38.425c0,6.454-1.546,11.497-4.601,15.134
		c-3.058,3.64-7.257,5.452-12.563,5.452c-3.643,0-6.386-0.524-8.269-1.588c-1.885-1.062-3.248-2.802-4.105-5.213
		c-0.86-2.41-1.289-5.797-1.289-10.169v-42.04h-11.096v44.18c0,0.975,0.032,1.905,0.074,2.812v102.972h11.036V94.536
		c2.759,1.016,6.047,1.542,9.913,1.542c4.938,0,9.081-0.952,12.399-2.852c3.34-1.897,6.261-5.131,8.794-9.712h0.189
		c0.087,3.232,0.155,5.427,0.222,6.587c0.053,1.168,0.112,2.197,0.147,3.1c0.034,0.895,0.083,1.445,0.131,1.647h10.405
		C246.765,93.139,246.646,88.418,246.646,80.698z"/>
	<path fill="#FFFFFF" d="M277.729,145.3c0,11.615-2.553,20.255-7.658,25.934c-5.111,5.678-12.529,8.52-22.253,8.52
		c-9.676,0-17.003-2.964-21.94-8.864c-4.939-5.896-7.42-14.426-7.42-25.588c0-22.866,9.92-34.319,29.731-34.319
		c10.128,0,17.587,2.802,22.361,8.367C275.33,124.928,277.729,133.577,277.729,145.3z M266.133,145.3
		c0-9.145-1.348-15.791-4.068-19.942c-2.721-4.149-7.293-6.218-13.687-6.218c-6.468,0-11.131,2.112-14.019,6.337
		c-2.865,4.224-4.308,10.845-4.308,19.823c0,8.751,1.419,15.315,4.26,19.71c2.839,4.393,7.288,6.581,13.376,6.581
		c6.633,0,11.346-2.123,14.186-6.372C264.713,160.973,266.133,154.338,266.133,145.3z"/>
	<path fill="#FFFFFF" d="M333.547,178.513v-42.024c0-4.378-0.43-7.776-1.289-10.188c-0.859-2.409-2.223-4.131-4.104-5.204
		c-1.887-1.052-4.631-1.599-8.275-1.599c-5.305,0-9.504,1.832-12.559,5.465c-3.066,3.628-4.605,8.685-4.605,15.13v38.419h-11.025
		v-52.141c0-7.73-0.119-12.434-0.359-14.151h10.406c0.045,0.192,0.092,0.742,0.123,1.647c0.041,0.906,0.102,1.931,0.152,3.091
		c0.07,1.169,0.131,3.373,0.225,6.597h0.178c2.539-4.581,5.467-7.814,8.795-9.723c3.33-1.888,7.471-2.852,12.41-2.852
		c7.275,0,12.588,1.823,15.961,5.428c3.375,3.627,5.061,9.599,5.061,17.933v44.172H333.547z"/>
	<path fill="#FFFFFF" d="M364.496,204.566c-3.033,0-5.561-0.234-7.607-0.68v-8.266c1.557,0.239,3.273,0.358,5.15,0.358
		c6.871,0,12.295-5.035,16.299-15.129l1.049-2.644L353.09,112.22h11.766l13.982,36.633c0.191,0.57,0.443,1.266,0.73,2.062
		c0.281,0.788,1.201,3.462,2.754,7.997c1.551,4.536,2.387,7.072,2.514,7.598l4.289-12.074l14.527-42.215h11.641l-25.494,66.293
		c-2.729,7.069-5.283,12.327-7.66,15.784c-2.369,3.46-4.988,6.027-7.869,7.726C371.383,203.719,368.125,204.566,364.496,204.566z"/>
	<path fill="#FFFFFF" d="M187.422,56.715h-1.906c-0.399-2.461-1.015-4.85-1.888-7.118l1.625-0.939
		c1.411-0.819,1.898-2.639,1.091-4.05l-2.632-4.563c-0.817-1.412-2.638-1.899-4.05-1.082l-1.639,0.944
		c-1.553-1.909-3.29-3.658-5.204-5.21l0.937-1.628c0.82-1.414,0.333-3.239-1.081-4.05l-4.557-2.635
		c-1.411-0.816-3.235-0.327-4.049,1.084l-0.953,1.648c-2.268-0.866-4.649-1.492-7.105-1.892V25.31c0-1.632-1.337-2.963-2.97-2.963
		h-5.254c-1.633,0-2.969,1.332-2.969,2.963v1.913c-2.463,0.393-4.826,1.058-7.093,1.926l-0.972-1.676
		c-0.812-1.413-2.637-1.903-4.05-1.085l-4.55,2.63c-1.415,0.81-1.904,2.635-1.085,4.049l0.95,1.65
		c-1.911,1.55-3.631,3.313-5.184,5.218l-1.671-0.967c-1.41-0.813-3.232-0.327-4.051,1.085l-2.63,4.556
		c-0.813,1.411-0.325,3.231,1.088,4.05l1.65,0.95c-0.87,2.27-1.542,4.646-1.929,7.113h-1.884c-1.631,0-2.965,1.333-2.965,2.963v5.26
		c0,1.63,1.334,2.962,2.965,2.962h1.909c0.396,2.472,1.012,4.858,1.887,7.126l-1.631,0.942c-1.413,0.813-1.901,2.635-1.089,4.049
		l2.632,4.55c0.817,1.413,2.64,1.902,4.051,1.087l1.649-0.952c1.554,1.908,3.292,3.656,5.203,5.203l-0.949,1.653
		c-0.821,1.41-0.331,3.231,1.083,4.052l4.554,2.628c1.411,0.813,3.236,0.326,4.049-1.084l0.969-1.676
		c2.268,0.86,4.631,1.532,7.093,1.917v1.914c0,1.627,1.336,2.968,2.969,2.97h5.255c1.63,0.002,2.97-1.34,2.97-2.969v-1.908
		c2.463-0.391,4.848-1.008,7.116-1.882l0.943,1.629c0.812,1.41,2.639,1.9,4.051,1.087l4.555-2.63
		c1.414-0.82,1.903-2.639,1.083-4.049l-0.948-1.652c1.906-1.553,3.649-3.296,5.195-5.208l1.652,0.953
		c1.412,0.816,3.233,0.326,4.051-1.087l2.632-4.547c0.812-1.416,0.324-3.239-1.087-4.05l-1.673-0.975
		c0.864-2.266,1.53-4.624,1.925-7.093h1.907c1.632,0,2.963-1.332,2.964-2.963l0.002-5.263
		C190.386,58.049,189.054,56.713,187.422,56.715z M150.414,88.993c-14.738,0-26.678-11.947-26.678-26.682
		c0-14.734,11.941-26.678,26.678-26.678c14.739,0,26.679,11.944,26.679,26.678C177.093,77.047,165.153,88.993,150.414,88.993z"/>
</g>
</svg>
