<svg xmlns="http://www.w3.org/2000/svg" width="184.333" height="193" viewBox="0 0 184.333 193"><radialGradient id="a" cx="91.838" cy="127.025" r="107.116" gradientUnits="userSpaceOnUse"><stop offset="0" stop-color="#fff"/><stop offset="1" stop-color="#e4e4e4"/></radialGradient><path fill="url(#a)" stroke="#A9A9A9" stroke-miterlimit="10" d="M5.622 65.832v112.476c0 5.474 5.373 9.911 12 9.911h148.432c6.627 0 12-4.438 12-9.911V65.832H5.622z"/><path fill="#145BA3" d="M178.554 66.332H5.122V35.895c0-6.893 5.607-12.5 12.5-12.5h148.432c6.893 0 12.5 5.607 12.5 12.5v30.437zm-172.432-1h171.432V35.895c0-6.341-5.159-11.5-11.5-11.5H17.622c-6.341 0-11.5 5.159-11.5 11.5v29.437z"/><path fill="#4367AF" d="M100.259 102.29H108V90.271H97.475c-14.908 0-14.557 11.555-14.557 13.28v9.439h-6.916v11.544h6.916v34.304h14.208v-34.303h9.534s.893-5.534 1.325-11.588H97.179v-7.892c0-1.179 1.549-2.765 3.08-2.765z"/><linearGradient id="b" gradientUnits="userSpaceOnUse" x1="91.837" y1="65.665" x2="91.837" y2="24.165"><stop offset="0" stop-color="#4367af"/><stop offset=".032" stop-color="#4468af"/><stop offset=".362" stop-color="#4a6ea9"/><stop offset=".687" stop-color="#4d72a6"/><stop offset="1" stop-color="#4f73a4"/></linearGradient><path fill="url(#b)" d="M166.054 23.895H17.622c-6.627 0-12 5.373-12 12v29.938h172.432V35.895c0-6.628-5.373-12-12-12zM51.837 38.5a5.333 5.333 0 1 1 0-10.667 5.333 5.333 0 0 1 0 10.667zm80 .333a5.333 5.333 0 1 1 0-10.667 5.333 5.333 0 0 1 0 10.667z"/><path fill="#24416B" d="M131.838 27.571a5.814 5.814 0 1 0 .001 11.627 5.814 5.814 0 0 0-.001-11.627zm0 10.929a5.333 5.333 0 1 1 0-10.667 5.333 5.333 0 0 1 0 10.667zM51.838 27.571a5.814 5.814 0 1 0 .001 11.627 5.814 5.814 0 0 0-.001-11.627zM51.837 38.5a5.333 5.333 0 1 1 0-10.667 5.333 5.333 0 0 1 0 10.667z"/><linearGradient id="c" gradientUnits="userSpaceOnUse" x1="131.838" y1="3.665" x2="131.838" y2="36.665"><stop offset="0" stop-color="#fff"/><stop offset="1" stop-color="#b0b0b0"/></linearGradient><path fill="url(#c)" d="M135.713 33.665c0 1.65-1.35 3-3 3h-1.75c-1.65 0-3-1.35-3-3v-27c0-1.65 1.35-3 3-3h1.75c1.65 0 3 1.35 3 3v27z"/><path fill="none" stroke="#A9A9A9" stroke-miterlimit="10" d="M135.713 33.665c0 1.65-1.35 3-3 3h-1.75c-1.65 0-3-1.35-3-3v-27c0-1.65 1.35-3 3-3h1.75c1.65 0 3 1.35 3 3v27z"/><linearGradient id="d" gradientUnits="userSpaceOnUse" x1="51.838" y1="3.665" x2="51.838" y2="36.665"><stop offset="0" stop-color="#fff"/><stop offset="1" stop-color="#b0b0b0"/></linearGradient><path fill="url(#d)" d="M55.713 33.665c0 1.65-1.35 3-3 3h-1.75c-1.65 0-3-1.35-3-3v-27c0-1.65 1.35-3 3-3h1.75c1.65 0 3 1.35 3 3v27z"/><path fill="none" stroke="#A9A9A9" stroke-miterlimit="10" d="M55.713 33.665c0 1.65-1.35 3-3 3h-1.75c-1.65 0-3-1.35-3-3v-27c0-1.65 1.35-3 3-3h1.75c1.65 0 3 1.35 3 3v27z"/><path fill="none" d="M7.122 42.863h170.932v15.802H7.122z"/><text transform="translate(54.22 57.899)" fill="#FFF" font-family="'Arial-BoldMT'" font-size="21" letter-spacing="1">EVENT</text></svg>