<?xml version="1.0" encoding="utf-8"?>
<!-- Generator: Adobe Illustrator 16.0.0, SVG Export Plug-In . SVG Version: 6.00 Build 0)  -->
<!DOCTYPE svg PUBLIC "-//W3C//DTD SVG 1.1//EN" "http://www.w3.org/Graphics/SVG/1.1/DTD/svg11.dtd">
<svg version="1.1" xmlns="http://www.w3.org/2000/svg" xmlns:xlink="http://www.w3.org/1999/xlink" x="0px" y="0px"
	 width="184.333px" height="193px" viewBox="0 0 184.333 193" enable-background="new 0 0 184.333 193" xml:space="preserve">
<g id="Ebene_1">
	<radialGradient id="SVGID_1_" cx="91.8379" cy="127.0254" r="107.1161" gradientUnits="userSpaceOnUse">
		<stop  offset="0" style="stop-color:#FFFFFF"/>
		<stop  offset="1" style="stop-color:#E4E4E4"/>
	</radialGradient>
	<path fill="url(#SVGID_1_)" stroke="#A9A9A9" stroke-miterlimit="10" d="M5.622,65.832v112.476c0,5.474,5.373,9.911,12,9.911
		h148.432c6.627,0,12-4.438,12-9.911V65.832H5.622z"/>
	<path fill="#145BA3" d="M178.554,66.332H5.122V35.895c0-6.893,5.607-12.5,12.5-12.5h148.432c6.893,0,12.5,5.607,12.5,12.5V66.332z
		 M6.122,65.332h171.432V35.895c0-6.341-5.159-11.5-11.5-11.5H17.622c-6.341,0-11.5,5.159-11.5,11.5V65.332z"/>
	<path fill="#4367AF" d="M100.259,102.29c1.528,0,4.753,0,7.741,0c0-1.572,0-7.003,0-12.019c-3.988,0-8.525,0-10.525,0
		c-14.908,0-14.557,11.555-14.557,13.28c0,1.728,0,9.439,0,9.439h-6.916v11.544h6.916v34.304h14.208v-34.303h9.534
		c0,0,0.893-5.534,1.325-11.588c-1.241,0-10.806,0-10.806,0s0-6.715,0-7.892C97.179,103.876,98.728,102.29,100.259,102.29z"/>
	<linearGradient id="SVGID_2_" gradientUnits="userSpaceOnUse" x1="91.8374" y1="65.665" x2="91.8374" y2="24.165">
		<stop  offset="0" style="stop-color:#4367AF"/>
		<stop  offset="0.0316" style="stop-color:#4468AF"/>
		<stop  offset="0.3619" style="stop-color:#4A6EA9"/>
		<stop  offset="0.6874" style="stop-color:#4D72A6"/>
		<stop  offset="1" style="stop-color:#4F73A4"/>
	</linearGradient>
	<path fill="url(#SVGID_2_)" d="M166.054,23.895H17.622c-6.627,0-12,5.373-12,12v29.938h172.432V35.895
		C178.054,29.267,172.681,23.895,166.054,23.895z M51.837,38.5c-2.945,0-5.333-2.388-5.333-5.333c0-2.946,2.388-5.333,5.333-5.333
		c2.946,0,5.334,2.388,5.334,5.333C57.171,36.112,54.783,38.5,51.837,38.5z M131.837,38.833c-2.945,0-5.333-2.388-5.333-5.333
		c0-2.946,2.388-5.333,5.333-5.333s5.334,2.388,5.334,5.333C137.171,36.446,134.782,38.833,131.837,38.833z"/>
	<path fill="#24416B" d="M131.838,27.571c-3.21,0-5.813,2.603-5.813,5.813s2.603,5.813,5.813,5.813s5.813-2.603,5.813-5.813
		S135.048,27.571,131.838,27.571z M131.838,38.5c-2.945,0-5.333-2.388-5.333-5.333c0-2.946,2.388-5.333,5.333-5.333
		s5.334,2.388,5.334,5.333C137.172,36.112,134.783,38.5,131.838,38.5z"/>
	<path fill="#24416B" d="M51.838,27.571c-3.21,0-5.813,2.603-5.813,5.813s2.603,5.813,5.813,5.813s5.813-2.603,5.813-5.813
		S55.048,27.571,51.838,27.571z M51.837,38.5c-2.945,0-5.333-2.388-5.333-5.333c0-2.946,2.388-5.333,5.333-5.333
		c2.946,0,5.334,2.388,5.334,5.333C57.171,36.112,54.783,38.5,51.837,38.5z"/>
	<g>
		<linearGradient id="SVGID_3_" gradientUnits="userSpaceOnUse" x1="131.8379" y1="3.665" x2="131.8379" y2="36.665">
			<stop  offset="0" style="stop-color:#FFFFFF"/>
			<stop  offset="1" style="stop-color:#B0B0B0"/>
		</linearGradient>
		<path fill="url(#SVGID_3_)" d="M135.713,33.665c0,1.65-1.35,3-3,3h-1.75c-1.65,0-3-1.35-3-3v-27c0-1.65,1.35-3,3-3h1.75
			c1.65,0,3,1.35,3,3V33.665z"/>
		<path fill="none" stroke="#A9A9A9" stroke-miterlimit="10" d="M135.713,33.665c0,1.65-1.35,3-3,3h-1.75c-1.65,0-3-1.35-3-3v-27
			c0-1.65,1.35-3,3-3h1.75c1.65,0,3,1.35,3,3V33.665z"/>
	</g>
	<g>
		<linearGradient id="SVGID_4_" gradientUnits="userSpaceOnUse" x1="51.8379" y1="3.665" x2="51.8379" y2="36.665">
			<stop  offset="0" style="stop-color:#FFFFFF"/>
			<stop  offset="1" style="stop-color:#B0B0B0"/>
		</linearGradient>
		<path fill="url(#SVGID_4_)" d="M55.713,33.665c0,1.65-1.35,3-3,3h-1.75c-1.65,0-3-1.35-3-3v-27c0-1.65,1.35-3,3-3h1.75
			c1.65,0,3,1.35,3,3V33.665z"/>
		<path fill="none" stroke="#A9A9A9" stroke-miterlimit="10" d="M55.713,33.665c0,1.65-1.35,3-3,3h-1.75c-1.65,0-3-1.35-3-3v-27
			c0-1.65,1.35-3,3-3h1.75c1.65,0,3,1.35,3,3V33.665z"/>
	</g>
	<rect x="7.122" y="42.863" fill="none" width="170.932" height="15.802"/>
	
		<text transform="matrix(1 0 0 1 54.2207 57.8989)" fill="#FFFFFF" font-family="'Arial-BoldMT'" font-size="21" letter-spacing="1">EVENT</text>
</g>
<g id="Ebene_2" display="none">
	
		<image display="inline" overflow="visible" width="520" height="308" xlink:href="C:\Users\finn-\Desktop\Calendar-Facebook-Icon-520x308.jpg"  transform="matrix(1 0 0 1 -10 96)">
	</image>
</g>
</svg>
