<svg xmlns="http://www.w3.org/2000/svg" width="184.333" height="193" viewBox="0 0 184.333 193"><linearGradient id="a" gradientUnits="userSpaceOnUse" x1="147.502" y1="3.665" x2="147.502" y2="27.571"><stop offset="0" stop-color="#fff"/><stop offset="1" stop-color="#b0b0b0"/></linearGradient><path fill="url(#a)" d="M161.917 24.571c0 1.65-1.35 3-3 3h-22.829c-1.65 0-3-1.35-3-3V6.665c0-1.65 1.35-3 3-3h22.829c1.65 0 3 1.35 3 3v17.906z"/><path fill="none" stroke="#A9A9A9" stroke-miterlimit="10" d="M161.917 24.571c0 1.65-1.35 3-3 3h-22.829c-1.65 0-3-1.35-3-3V6.665c0-1.65 1.35-3 3-3h22.829c1.65 0 3 1.35 3 3v17.906z"/><radialGradient id="b" cx="91.837" cy="127.025" r="107.116" gradientUnits="userSpaceOnUse"><stop offset="0" stop-color="#fff"/><stop offset="1" stop-color="#e4e4e4"/></radialGradient><path fill="url(#b)" stroke="#A9A9A9" stroke-miterlimit="10" d="M5.622 65.832v112.476c0 5.475 5.373 9.912 12 9.912h148.432c6.627 0 12-4.437 12-9.912V65.832H5.622z"/><path fill="#145BA3" d="M178.553 66.332H5.122V35.895c0-6.893 5.607-12.5 12.5-12.5h148.432c6.893 0 12.5 5.607 12.5 12.5v30.437zm-172.431-1h171.432V35.895c0-6.342-5.158-11.5-11.5-11.5H17.622c-6.341 0-11.5 5.158-11.5 11.5v29.437z"/><path fill="#8D8D8E" d="M166.053 23.895H17.622c-6.627 0-12 5.373-12 12v29.937h172.432V35.895c-.001-6.628-5.374-12-12.001-12z"/><path fill="none" d="M7.122 42.863h170.932v15.801H7.122z"/><text transform="translate(37.38 57.899)" fill="#FFF" font-family="'Arial-BoldMT'" font-size="21" letter-spacing="1">GALLERY</text><circle fill="#8D8D8E" cx="91.837" cy="127.025" r="41.25"/><radialGradient id="c" cx="91.837" cy="127.025" r="28" gradientUnits="userSpaceOnUse"><stop offset="0" stop-color="#7d78ad"/><stop offset=".125" stop-color="#7b7aa9"/><stop offset=".374" stop-color="#72799a"/><stop offset=".719" stop-color="#596473"/><stop offset="1" stop-color="#303a3e"/></radialGradient><circle fill="url(#c)" cx="91.837" cy="127.025" r="28"/><ellipse transform="rotate(-26.607 104.046 117.747)" opacity=".1" fill="#FFF" cx="104.042" cy="117.75" rx="5.125" ry="11.25"/><g><radialGradient id="d" cx="147.502" cy="14.167" r="8.651" gradientUnits="userSpaceOnUse"><stop offset="0" stop-color="#71b2d1"/><stop offset="1" stop-color="#5177aa"/></radialGradient><path fill="url(#d)" d="M157.593 18.083c0 1.65-1.35 3-3 3H140.41c-1.65 0-3-1.35-3-3V10.25c0-1.65 1.35-3 3-3h14.183c1.65 0 3 1.35 3 3v7.833z"/><path fill="none" stroke="#A9A9A9" stroke-miterlimit="10" d="M157.593 18.083c0 1.65-1.35 3-3 3H140.41c-1.65 0-3-1.35-3-3V10.25c0-1.65 1.35-3 3-3h14.183c1.65 0 3 1.35 3 3v7.833z"/></g></svg>